<svg id="visual" viewBox="0 0 960 300" width="960" height="300" xmlns="http://www.w3.org/2000/svg" xmlns:xlink="http://www.w3.org/1999/xlink" version="1.1"><rect x="0" y="0" width="960" height="300" fill="#ffffff"></rect><path d="M0 164L13.3 173.2C26.7 182.3 53.3 200.7 80 207C106.7 213.3 133.3 207.7 160 205.2C186.7 202.7 213.3 203.3 240 200.3C266.7 197.3 293.3 190.7 320 190.5C346.7 190.3 373.3 196.7 400 201C426.7 205.3 453.3 207.7 480 206.2C506.7 204.7 533.3 199.3 560 194.7C586.7 190 613.3 186 640 182.2C666.7 178.3 693.3 174.7 720 168C746.7 161.3 773.3 151.7 800 153.5C826.7 155.3 853.3 168.7 880 170.8C906.7 173 933.3 164 946.7 159.5L960 155L960 301L946.7 301C933.3 301 906.7 301 880 301C853.3 301 826.7 301 800 301C773.3 301 746.7 301 720 301C693.3 301 666.7 301 640 301C613.3 301 586.7 301 560 301C533.3 301 506.7 301 480 301C453.3 301 426.7 301 400 301C373.3 301 346.7 301 320 301C293.3 301 266.7 301 240 301C213.3 301 186.7 301 160 301C133.3 301 106.7 301 80 301C53.3 301 26.7 301 13.3 301L0 301Z" fill="#4da6ff"></path><path d="M0 181L13.3 188.7C26.7 196.3 53.3 211.7 80 216.5C106.7 221.3 133.3 215.7 160 217.2C186.7 218.7 213.3 227.3 240 222.7C266.7 218 293.3 200 320 193C346.7 186 373.3 190 400 197.5C426.7 205 453.3 216 480 222C506.7 228 533.3 229 560 225C586.7 221 613.3 212 640 207.2C666.7 202.3 693.3 201.7 720 197.2C746.7 192.7 773.3 184.3 800 179C826.7 173.7 853.3 171.3 880 172.5C906.7 173.7 933.3 178.3 946.7 180.7L960 183L960 301L946.7 301C933.3 301 906.7 301 880 301C853.3 301 826.7 301 800 301C773.3 301 746.7 301 720 301C693.3 301 666.7 301 640 301C613.3 301 586.7 301 560 301C533.3 301 506.7 301 480 301C453.3 301 426.7 301 400 301C373.3 301 346.7 301 320 301C293.3 301 266.7 301 240 301C213.3 301 186.7 301 160 301C133.3 301 106.7 301 80 301C53.3 301 26.7 301 13.3 301L0 301Z" fill="#224a8d"></path><path d="M0 227L13.3 228.5C26.7 230 53.3 233 80 234.3C106.7 235.7 133.3 235.3 160 235.5C186.7 235.7 213.3 236.3 240 229.7C266.7 223 293.3 209 320 212C346.7 215 373.3 235 400 242.3C426.7 249.7 453.3 244.3 480 235.5C506.7 226.7 533.3 214.3 560 213.2C586.7 212 613.3 222 640 223.5C666.7 225 693.3 218 720 211.5C746.7 205 773.3 199 800 204C826.7 209 853.3 225 880 227.7C906.7 230.3 933.3 219.7 946.7 214.3L960 209L960 301L946.7 301C933.3 301 906.7 301 880 301C853.3 301 826.7 301 800 301C773.3 301 746.7 301 720 301C693.3 301 666.7 301 640 301C613.3 301 586.7 301 560 301C533.3 301 506.7 301 480 301C453.3 301 426.7 301 400 301C373.3 301 346.7 301 320 301C293.3 301 266.7 301 240 301C213.3 301 186.7 301 160 301C133.3 301 106.7 301 80 301C53.3 301 26.7 301 13.3 301L0 301Z" fill="#001b4e"></path><path d="M0 270L13.3 267.7C26.7 265.3 53.3 260.7 80 260C106.7 259.3 133.3 262.7 160 262.5C186.7 262.3 213.3 258.7 240 252C266.7 245.3 293.3 235.7 320 230.8C346.7 226 373.3 226 400 227.5C426.7 229 453.3 232 480 239.7C506.7 247.3 533.3 259.7 560 264.8C586.7 270 613.3 268 640 259.3C666.7 250.7 693.3 235.3 720 236C746.7 236.7 773.3 253.3 800 261C826.7 268.7 853.3 267.3 880 265.2C906.7 263 933.3 260 946.7 258.5L960 257L960 301L946.7 301C933.3 301 906.7 301 880 301C853.3 301 826.7 301 800 301C773.3 301 746.7 301 720 301C693.3 301 666.7 301 640 301C613.3 301 586.7 301 560 301C533.3 301 506.7 301 480 301C453.3 301 426.7 301 400 301C373.3 301 346.7 301 320 301C293.3 301 266.7 301 240 301C213.3 301 186.7 301 160 301C133.3 301 106.7 301 80 301C53.3 301 26.7 301 13.3 301L0 301Z" fill="#224a8d"></path><path d="M0 251L13.3 253C26.7 255 53.3 259 80 261.8C106.7 264.7 133.3 266.3 160 269C186.7 271.7 213.3 275.3 240 274.3C266.7 273.3 293.3 267.7 320 264.2C346.7 260.7 373.3 259.3 400 262.5C426.7 265.7 453.3 273.3 480 275.5C506.7 277.7 533.3 274.3 560 274C586.7 273.7 613.3 276.3 640 278.2C666.7 280 693.3 281 720 281.8C746.7 282.7 773.3 283.3 800 278.2C826.7 273 853.3 262 880 258.5C906.7 255 933.3 259 946.7 261L960 263L960 301L946.7 301C933.3 301 906.7 301 880 301C853.3 301 826.7 301 800 301C773.3 301 746.7 301 720 301C693.3 301 666.7 301 640 301C613.3 301 586.7 301 560 301C533.3 301 506.7 301 480 301C453.3 301 426.7 301 400 301C373.3 301 346.7 301 320 301C293.3 301 266.7 301 240 301C213.3 301 186.7 301 160 301C133.3 301 106.7 301 80 301C53.3 301 26.7 301 13.3 301L0 301Z" fill="#4da6ff"></path></svg>